<svg width="681" height="293" viewBox="0 0 681 293" fill="none" xmlns="http://www.w3.org/2000/svg">
<path d="M240.013 21.878C240.013 23.774 239.683 25.526 239.023 27.134C238.375 28.73 237.457 30.116 236.269 31.292C235.081 32.456 233.647 33.368 231.967 34.028C230.299 34.676 228.445 35 226.405 35H216.217V8.774H226.405C228.445 8.774 230.299 9.104 231.967 9.764C233.647 10.424 235.081 11.336 236.269 12.5C237.457 13.664 238.375 15.05 239.023 16.658C239.683 18.254 240.013 19.994 240.013 21.878ZM233.785 21.878C233.785 20.582 233.617 19.412 233.281 18.368C232.945 17.324 232.459 16.442 231.823 15.722C231.199 14.99 230.431 14.432 229.519 14.048C228.607 13.652 227.569 13.454 226.405 13.454H222.337V30.32H226.405C227.569 30.32 228.607 30.128 229.519 29.744C230.431 29.348 231.199 28.79 231.823 28.07C232.459 27.338 232.945 26.45 233.281 25.406C233.617 24.362 233.785 23.186 233.785 21.878ZM259.819 8.774V13.454H249.055V19.574H257.299V24.074H249.055V30.32H259.819V35H242.935V8.774H259.819ZM261.131 8.774H266.027C266.555 8.774 266.987 8.894 267.323 9.134C267.659 9.374 267.899 9.692 268.043 10.088L273.119 24.128C273.347 24.74 273.575 25.406 273.803 26.126C274.043 26.846 274.265 27.602 274.469 28.394C274.637 27.602 274.829 26.846 275.045 26.126C275.273 25.406 275.495 24.74 275.711 24.128L280.751 10.088C280.871 9.752 281.105 9.452 281.453 9.188C281.801 8.912 282.227 8.774 282.731 8.774H287.663L277.151 35H271.643L261.131 8.774ZM306.718 8.774V13.454H295.954V19.574H304.198V24.074H295.954V30.32H306.718V35H289.834V8.774H306.718ZM316.273 30.14H325.993V35H310.189V8.774H316.273V30.14ZM353.3 21.878C353.3 23.774 352.97 25.538 352.31 27.17C351.662 28.802 350.744 30.224 349.556 31.436C348.368 32.636 346.934 33.578 345.254 34.262C343.586 34.946 341.732 35.288 339.692 35.288C337.652 35.288 335.792 34.946 334.112 34.262C332.432 33.578 330.992 32.636 329.792 31.436C328.604 30.224 327.68 28.802 327.02 27.17C326.372 25.538 326.048 23.774 326.048 21.878C326.048 19.982 326.372 18.218 327.02 16.586C327.68 14.954 328.604 13.538 329.792 12.338C330.992 11.138 332.432 10.196 334.112 9.512C335.792 8.828 337.652 8.486 339.692 8.486C341.732 8.486 343.586 8.834 345.254 9.53C346.934 10.214 348.368 11.156 349.556 12.356C350.744 13.556 351.662 14.972 352.31 16.604C352.97 18.236 353.3 19.994 353.3 21.878ZM347.072 21.878C347.072 20.582 346.904 19.418 346.568 18.386C346.232 17.342 345.746 16.46 345.11 15.74C344.486 15.02 343.718 14.468 342.806 14.084C341.894 13.7 340.856 13.508 339.692 13.508C338.516 13.508 337.466 13.7 336.542 14.084C335.63 14.468 334.856 15.02 334.22 15.74C333.596 16.46 333.116 17.342 332.78 18.386C332.444 19.418 332.276 20.582 332.276 21.878C332.276 23.186 332.444 24.362 332.78 25.406C333.116 26.438 333.596 27.314 334.22 28.034C334.856 28.754 335.63 29.306 336.542 29.69C337.466 30.062 338.516 30.248 339.692 30.248C340.856 30.248 341.894 30.062 342.806 29.69C343.718 29.306 344.486 28.754 345.11 28.034C345.746 27.314 346.232 26.438 346.568 25.406C346.904 24.362 347.072 23.186 347.072 21.878ZM362.293 26.234V35H356.209V8.774H365.461C367.309 8.774 368.893 8.996 370.213 9.44C371.545 9.872 372.637 10.472 373.489 11.24C374.353 12.008 374.989 12.914 375.397 13.958C375.805 15.002 376.009 16.13 376.009 17.342C376.009 18.65 375.799 19.85 375.379 20.942C374.959 22.034 374.317 22.97 373.453 23.75C372.589 24.53 371.491 25.142 370.159 25.586C368.839 26.018 367.273 26.234 365.461 26.234H362.293ZM362.293 21.644H365.461C367.045 21.644 368.185 21.266 368.881 20.51C369.577 19.754 369.925 18.698 369.925 17.342C369.925 16.742 369.835 16.196 369.655 15.704C369.475 15.212 369.199 14.792 368.827 14.444C368.467 14.084 368.005 13.808 367.441 13.616C366.889 13.424 366.229 13.328 365.461 13.328H362.293V21.644ZM392.576 23.012C392.816 23.468 393.044 23.942 393.26 24.434C393.488 24.926 393.704 25.43 393.908 25.946C394.112 25.418 394.328 24.908 394.556 24.416C394.784 23.912 395.018 23.426 395.258 22.958L401.99 9.71C402.11 9.482 402.23 9.308 402.35 9.188C402.482 9.056 402.626 8.96 402.782 8.9C402.938 8.84 403.112 8.804 403.304 8.792C403.508 8.78 403.742 8.774 404.006 8.774H408.65V35H403.286V19.916C403.286 19.184 403.322 18.392 403.394 17.54L396.446 31.022C396.23 31.442 395.936 31.76 395.564 31.976C395.204 32.192 394.79 32.3 394.322 32.3H393.494C393.026 32.3 392.606 32.192 392.234 31.976C391.874 31.76 391.586 31.442 391.37 31.022L384.386 17.522C384.434 17.942 384.47 18.362 384.494 18.782C384.518 19.19 384.53 19.568 384.53 19.916V35H379.166V8.774H383.81C384.074 8.774 384.302 8.78 384.494 8.792C384.698 8.804 384.878 8.84 385.034 8.9C385.19 8.96 385.328 9.056 385.448 9.188C385.58 9.308 385.706 9.482 385.826 9.71L392.576 23.012ZM429.87 8.774V13.454H419.106V19.574H427.35V24.074H419.106V30.32H429.87V35H412.986V8.774H429.87ZM436.546 8.774C436.81 8.774 437.032 8.786 437.212 8.81C437.392 8.834 437.554 8.882 437.698 8.954C437.842 9.014 437.98 9.104 438.112 9.224C438.244 9.344 438.394 9.506 438.562 9.71L451.018 25.46C450.97 24.956 450.934 24.47 450.91 24.002C450.886 23.522 450.874 23.072 450.874 22.652V8.774H456.238V35H453.07C452.602 35 452.206 34.928 451.882 34.784C451.558 34.64 451.246 34.376 450.946 33.992L438.58 18.368C438.616 18.824 438.646 19.274 438.67 19.718C438.694 20.15 438.706 20.558 438.706 20.942V35H433.342V8.774H436.546ZM479.597 8.774V13.598H472.217V35H466.133V13.598H458.753V8.774H479.597Z" fill="black"/>
<path d="M496.171 118.774V123.454H485.407V129.574H493.651V134.074H485.407V140.32H496.171V145H479.287V118.774H496.171ZM516.526 118.774V123.454H505.762V130.096H514.726V134.794H505.762V145H499.642V118.774H516.526ZM536.565 118.774V123.454H525.801V130.096H534.765V134.794H525.801V145H519.681V118.774H536.565ZM546.381 145H540.261V118.774H546.381V145ZM568.874 138.214C569.018 138.214 569.162 138.244 569.306 138.304C569.45 138.352 569.588 138.442 569.72 138.574L572.132 141.112C571.076 142.492 569.75 143.536 568.154 144.244C566.57 144.94 564.692 145.288 562.52 145.288C560.528 145.288 558.74 144.952 557.156 144.28C555.584 143.596 554.246 142.66 553.142 141.472C552.05 140.272 551.21 138.856 550.622 137.224C550.034 135.58 549.74 133.798 549.74 131.878C549.74 129.922 550.076 128.128 550.748 126.496C551.42 124.852 552.356 123.436 553.556 122.248C554.768 121.06 556.214 120.136 557.894 119.476C559.574 118.816 561.428 118.486 563.456 118.486C564.44 118.486 565.364 118.576 566.228 118.756C567.104 118.924 567.92 119.164 568.676 119.476C569.432 119.776 570.128 120.142 570.764 120.574C571.4 120.994 571.964 121.462 572.456 121.978L570.404 124.732C570.272 124.9 570.116 125.056 569.936 125.2C569.756 125.332 569.504 125.398 569.18 125.398C568.964 125.398 568.76 125.35 568.568 125.254C568.376 125.158 568.172 125.044 567.956 124.912C567.74 124.768 567.5 124.618 567.236 124.462C566.984 124.294 566.678 124.144 566.318 124.012C565.97 123.868 565.556 123.748 565.076 123.652C564.608 123.556 564.056 123.508 563.42 123.508C562.316 123.508 561.308 123.706 560.396 124.102C559.484 124.486 558.698 125.044 558.038 125.776C557.39 126.496 556.88 127.372 556.508 128.404C556.148 129.436 555.968 130.594 555.968 131.878C555.968 133.222 556.148 134.416 556.508 135.46C556.88 136.504 557.378 137.386 558.002 138.106C558.638 138.814 559.376 139.354 560.216 139.726C561.056 140.098 561.956 140.284 562.916 140.284C563.468 140.284 563.972 140.26 564.428 140.212C564.884 140.152 565.304 140.056 565.688 139.924C566.084 139.792 566.456 139.624 566.804 139.42C567.164 139.204 567.524 138.94 567.884 138.628C568.028 138.508 568.184 138.412 568.352 138.34C568.52 138.256 568.694 138.214 568.874 138.214ZM581.572 145H575.452V118.774H581.572V145ZM603.327 118.774V123.454H592.563V129.574H600.807V134.074H592.563V140.32H603.327V145H586.443V118.774H603.327ZM610.003 118.774C610.267 118.774 610.489 118.786 610.669 118.81C610.849 118.834 611.011 118.882 611.155 118.954C611.299 119.014 611.437 119.104 611.569 119.224C611.701 119.344 611.851 119.506 612.019 119.71L624.475 135.46C624.427 134.956 624.391 134.47 624.367 134.002C624.343 133.522 624.331 133.072 624.331 132.652V118.774H629.695V145H626.527C626.059 145 625.663 144.928 625.339 144.784C625.015 144.64 624.703 144.376 624.403 143.992L612.037 128.368C612.073 128.824 612.103 129.274 612.127 129.718C612.151 130.15 612.163 130.558 612.163 130.942V145H606.799V118.774H610.003ZM651.632 138.214C651.776 138.214 651.92 138.244 652.064 138.304C652.208 138.352 652.346 138.442 652.478 138.574L654.89 141.112C653.834 142.492 652.508 143.536 650.912 144.244C649.328 144.94 647.45 145.288 645.278 145.288C643.286 145.288 641.498 144.952 639.914 144.28C638.342 143.596 637.004 142.66 635.9 141.472C634.808 140.272 633.968 138.856 633.38 137.224C632.792 135.58 632.498 133.798 632.498 131.878C632.498 129.922 632.834 128.128 633.506 126.496C634.178 124.852 635.114 123.436 636.314 122.248C637.526 121.06 638.972 120.136 640.652 119.476C642.332 118.816 644.186 118.486 646.214 118.486C647.198 118.486 648.122 118.576 648.986 118.756C649.862 118.924 650.678 119.164 651.434 119.476C652.19 119.776 652.886 120.142 653.522 120.574C654.158 120.994 654.722 121.462 655.214 121.978L653.162 124.732C653.03 124.9 652.874 125.056 652.694 125.2C652.514 125.332 652.262 125.398 651.938 125.398C651.722 125.398 651.518 125.35 651.326 125.254C651.134 125.158 650.93 125.044 650.714 124.912C650.498 124.768 650.258 124.618 649.994 124.462C649.742 124.294 649.436 124.144 649.076 124.012C648.728 123.868 648.314 123.748 647.834 123.652C647.366 123.556 646.814 123.508 646.178 123.508C645.074 123.508 644.066 123.706 643.154 124.102C642.242 124.486 641.456 125.044 640.796 125.776C640.148 126.496 639.638 127.372 639.266 128.404C638.906 129.436 638.726 130.594 638.726 131.878C638.726 133.222 638.906 134.416 639.266 135.46C639.638 136.504 640.136 137.386 640.76 138.106C641.396 138.814 642.134 139.354 642.974 139.726C643.814 140.098 644.714 140.284 645.674 140.284C646.226 140.284 646.73 140.26 647.186 140.212C647.642 140.152 648.062 140.056 648.446 139.924C648.842 139.792 649.214 139.624 649.562 139.42C649.922 139.204 650.282 138.94 650.642 138.628C650.786 138.508 650.942 138.412 651.11 138.34C651.278 138.256 651.452 138.214 651.632 138.214ZM670.738 135.028V145H664.654V135.028L655.15 118.774H660.514C661.042 118.774 661.462 118.9 661.774 119.152C662.086 119.392 662.338 119.704 662.53 120.088L666.238 127.72C666.538 128.332 666.814 128.896 667.066 129.412C667.318 129.928 667.54 130.438 667.732 130.942C667.912 130.426 668.128 129.91 668.38 129.394C668.632 128.878 668.902 128.32 669.19 127.72L672.862 120.088C672.934 119.932 673.03 119.776 673.15 119.62C673.282 119.464 673.426 119.326 673.582 119.206C673.75 119.074 673.936 118.972 674.14 118.9C674.356 118.816 674.59 118.774 674.842 118.774H680.242L670.738 135.028Z" fill="black"/>
<path d="M19.3682 118.774V123.454H8.60422V129.574H16.8482V134.074H8.60422V140.32H19.3682V145H2.48422V118.774H19.3682ZM29.3017 131.518L21.1837 118.774H27.2677C27.6637 118.774 27.9517 118.828 28.1317 118.936C28.3237 119.032 28.4917 119.2 28.6357 119.44L33.8557 128.278C33.9157 128.122 33.9817 127.972 34.0537 127.828C34.1377 127.684 34.2277 127.534 34.3237 127.378L38.8957 119.53C39.1957 119.026 39.6037 118.774 40.1197 118.774H45.9517L37.7257 131.248L46.1317 145H40.0477C39.6517 145 39.3277 144.904 39.0757 144.712C38.8357 144.52 38.6437 144.292 38.4997 144.028L33.2437 134.848C33.1477 135.112 33.0397 135.34 32.9197 135.532L28.0237 144.028C27.8797 144.28 27.6877 144.508 27.4477 144.712C27.2077 144.904 26.9077 145 26.5477 145H20.8597L29.3017 131.518ZM54.5526 136.234V145H48.4686V118.774H57.7206C59.5686 118.774 61.1526 118.996 62.4726 119.44C63.8046 119.872 64.8966 120.472 65.7486 121.24C66.6126 122.008 67.2486 122.914 67.6566 123.958C68.0646 125.002 68.2686 126.13 68.2686 127.342C68.2686 128.65 68.0586 129.85 67.6386 130.942C67.2186 132.034 66.5766 132.97 65.7126 133.75C64.8486 134.53 63.7506 135.142 62.4186 135.586C61.0986 136.018 59.5326 136.234 57.7206 136.234H54.5526ZM54.5526 131.644H57.7206C59.3046 131.644 60.4446 131.266 61.1406 130.51C61.8366 129.754 62.1846 128.698 62.1846 127.342C62.1846 126.742 62.0946 126.196 61.9146 125.704C61.7346 125.212 61.4586 124.792 61.0866 124.444C60.7266 124.084 60.2646 123.808 59.7006 123.616C59.1486 123.424 58.4886 123.328 57.7206 123.328H54.5526V131.644ZM88.3096 118.774V123.454H77.5456V129.574H85.7896V134.074H77.5456V140.32H88.3096V145H71.4256V118.774H88.3096ZM97.8651 135.298V145H91.7811V118.774H100.313C102.209 118.774 103.823 118.972 105.155 119.368C106.499 119.752 107.591 120.292 108.431 120.988C109.283 121.684 109.901 122.506 110.285 123.454C110.669 124.402 110.861 125.434 110.861 126.55C110.861 127.402 110.747 128.206 110.519 128.962C110.291 129.718 109.949 130.42 109.493 131.068C109.049 131.704 108.497 132.274 107.837 132.778C107.189 133.282 106.439 133.696 105.587 134.02C105.995 134.224 106.373 134.476 106.721 134.776C107.081 135.076 107.393 135.442 107.657 135.874L113.237 145H107.729C106.709 145 105.977 144.616 105.533 143.848L101.177 136.234C100.985 135.898 100.757 135.658 100.493 135.514C100.241 135.37 99.8811 135.298 99.4131 135.298H97.8651ZM97.8651 131.104H100.313C101.141 131.104 101.843 131.002 102.419 130.798C103.007 130.582 103.487 130.288 103.859 129.916C104.231 129.544 104.501 129.112 104.669 128.62C104.837 128.116 104.921 127.576 104.921 127C104.921 125.848 104.543 124.948 103.787 124.3C103.043 123.652 101.885 123.328 100.313 123.328H97.8651V131.104ZM122.383 145H116.263V118.774H122.383V145ZM144.138 118.774V123.454H133.374V129.574H141.618V134.074H133.374V140.32H144.138V145H127.254V118.774H144.138ZM150.813 118.774C151.077 118.774 151.299 118.786 151.479 118.81C151.659 118.834 151.821 118.882 151.965 118.954C152.109 119.014 152.247 119.104 152.379 119.224C152.511 119.344 152.661 119.506 152.829 119.71L165.285 135.46C165.237 134.956 165.201 134.47 165.177 134.002C165.153 133.522 165.141 133.072 165.141 132.652V118.774H170.505V145H167.337C166.869 145 166.473 144.928 166.149 144.784C165.825 144.64 165.513 144.376 165.213 143.992L152.847 128.368C152.883 128.824 152.913 129.274 152.937 129.718C152.961 130.15 152.973 130.558 152.973 130.942V145H147.609V118.774H150.813ZM192.442 138.214C192.586 138.214 192.73 138.244 192.874 138.304C193.018 138.352 193.156 138.442 193.288 138.574L195.7 141.112C194.644 142.492 193.318 143.536 191.722 144.244C190.138 144.94 188.26 145.288 186.088 145.288C184.096 145.288 182.308 144.952 180.724 144.28C179.152 143.596 177.814 142.66 176.71 141.472C175.618 140.272 174.778 138.856 174.19 137.224C173.602 135.58 173.308 133.798 173.308 131.878C173.308 129.922 173.644 128.128 174.316 126.496C174.988 124.852 175.924 123.436 177.124 122.248C178.336 121.06 179.782 120.136 181.462 119.476C183.142 118.816 184.996 118.486 187.024 118.486C188.008 118.486 188.932 118.576 189.796 118.756C190.672 118.924 191.488 119.164 192.244 119.476C193 119.776 193.696 120.142 194.332 120.574C194.968 120.994 195.532 121.462 196.024 121.978L193.972 124.732C193.84 124.9 193.684 125.056 193.504 125.2C193.324 125.332 193.072 125.398 192.748 125.398C192.532 125.398 192.328 125.35 192.136 125.254C191.944 125.158 191.74 125.044 191.524 124.912C191.308 124.768 191.068 124.618 190.804 124.462C190.552 124.294 190.246 124.144 189.886 124.012C189.538 123.868 189.124 123.748 188.644 123.652C188.176 123.556 187.624 123.508 186.988 123.508C185.884 123.508 184.876 123.706 183.964 124.102C183.052 124.486 182.266 125.044 181.606 125.776C180.958 126.496 180.448 127.372 180.076 128.404C179.716 129.436 179.536 130.594 179.536 131.878C179.536 133.222 179.716 134.416 180.076 135.46C180.448 136.504 180.946 137.386 181.57 138.106C182.206 138.814 182.944 139.354 183.784 139.726C184.624 140.098 185.524 140.284 186.484 140.284C187.036 140.284 187.54 140.26 187.996 140.212C188.452 140.152 188.872 140.056 189.256 139.924C189.652 139.792 190.024 139.624 190.372 139.42C190.732 139.204 191.092 138.94 191.452 138.628C191.596 138.508 191.752 138.412 191.92 138.34C192.088 138.256 192.262 138.214 192.442 138.214ZM215.364 118.774V123.454H204.6V129.574H212.844V134.074H204.6V140.32H215.364V145H198.48V118.774H215.364Z" fill="black"/>
<path d="M452.881 264.102C452.701 264.39 452.509 264.606 452.305 264.75C452.113 264.894 451.861 264.966 451.549 264.966C451.273 264.966 450.973 264.882 450.649 264.714C450.337 264.534 449.977 264.336 449.569 264.12C449.173 263.904 448.717 263.712 448.201 263.544C447.685 263.364 447.097 263.274 446.437 263.274C445.297 263.274 444.445 263.52 443.881 264.012C443.329 264.492 443.053 265.146 443.053 265.974C443.053 266.502 443.221 266.94 443.557 267.288C443.893 267.636 444.331 267.936 444.871 268.188C445.423 268.44 446.047 268.674 446.743 268.89C447.451 269.094 448.171 269.328 448.903 269.592C449.635 269.844 450.349 270.144 451.045 270.492C451.753 270.84 452.377 271.284 452.917 271.824C453.469 272.364 453.913 273.024 454.249 273.804C454.585 274.572 454.753 275.502 454.753 276.594C454.753 277.806 454.543 278.94 454.123 279.996C453.703 281.052 453.091 281.976 452.287 282.768C451.495 283.548 450.511 284.166 449.335 284.622C448.171 285.066 446.845 285.288 445.357 285.288C444.541 285.288 443.707 285.204 442.855 285.036C442.015 284.868 441.199 284.634 440.407 284.334C439.615 284.022 438.871 283.656 438.175 283.236C437.479 282.816 436.873 282.348 436.357 281.832L438.157 278.988C438.289 278.772 438.475 278.598 438.715 278.466C438.955 278.334 439.213 278.268 439.489 278.268C439.849 278.268 440.209 278.382 440.569 278.61C440.941 278.838 441.355 279.09 441.811 279.366C442.279 279.642 442.813 279.894 443.413 280.122C444.013 280.35 444.721 280.464 445.537 280.464C446.641 280.464 447.499 280.224 448.111 279.744C448.723 279.252 449.029 278.478 449.029 277.422C449.029 276.81 448.861 276.312 448.525 275.928C448.189 275.544 447.745 275.226 447.193 274.974C446.653 274.722 446.035 274.5 445.339 274.308C444.643 274.116 443.929 273.906 443.197 273.678C442.465 273.438 441.751 273.15 441.055 272.814C440.359 272.466 439.735 272.016 439.183 271.464C438.643 270.9 438.205 270.204 437.869 269.376C437.533 268.536 437.365 267.504 437.365 266.28C437.365 265.296 437.563 264.336 437.959 263.4C438.355 262.464 438.937 261.63 439.705 260.898C440.473 260.166 441.415 259.584 442.531 259.152C443.647 258.708 444.925 258.486 446.365 258.486C447.169 258.486 447.949 258.552 448.705 258.684C449.473 258.804 450.199 258.99 450.883 259.242C451.567 259.482 452.203 259.776 452.791 260.124C453.391 260.46 453.925 260.844 454.393 261.276L452.881 264.102ZM474.661 258.774V263.454H463.897V269.574H472.141V274.074H463.897V280.32H474.661V285H457.777V258.774H474.661ZM481.337 258.774C481.601 258.774 481.823 258.786 482.003 258.81C482.183 258.834 482.345 258.882 482.489 258.954C482.633 259.014 482.771 259.104 482.903 259.224C483.035 259.344 483.185 259.506 483.353 259.71L495.809 275.46C495.761 274.956 495.725 274.47 495.701 274.002C495.677 273.522 495.665 273.072 495.665 272.652V258.774H501.029V285H497.861C497.393 285 496.997 284.928 496.673 284.784C496.349 284.64 496.037 284.376 495.737 283.992L483.371 268.368C483.407 268.824 483.437 269.274 483.461 269.718C483.485 270.15 483.497 270.558 483.497 270.942V285H478.133V258.774H481.337ZM512.004 285H505.884V258.774H512.004V285ZM542.759 271.878C542.759 273.774 542.429 275.538 541.769 277.17C541.121 278.802 540.203 280.224 539.015 281.436C537.827 282.636 536.393 283.578 534.713 284.262C533.045 284.946 531.191 285.288 529.151 285.288C527.111 285.288 525.251 284.946 523.571 284.262C521.891 283.578 520.451 282.636 519.251 281.436C518.063 280.224 517.139 278.802 516.479 277.17C515.831 275.538 515.507 273.774 515.507 271.878C515.507 269.982 515.831 268.218 516.479 266.586C517.139 264.954 518.063 263.538 519.251 262.338C520.451 261.138 521.891 260.196 523.571 259.512C525.251 258.828 527.111 258.486 529.151 258.486C531.191 258.486 533.045 258.834 534.713 259.53C536.393 260.214 537.827 261.156 539.015 262.356C540.203 263.556 541.121 264.972 541.769 266.604C542.429 268.236 542.759 269.994 542.759 271.878ZM536.531 271.878C536.531 270.582 536.363 269.418 536.027 268.386C535.691 267.342 535.205 266.46 534.569 265.74C533.945 265.02 533.177 264.468 532.265 264.084C531.353 263.7 530.315 263.508 529.151 263.508C527.975 263.508 526.925 263.7 526.001 264.084C525.089 264.468 524.315 265.02 523.679 265.74C523.055 266.46 522.575 267.342 522.239 268.386C521.903 269.418 521.735 270.582 521.735 271.878C521.735 273.186 521.903 274.362 522.239 275.406C522.575 276.438 523.055 277.314 523.679 278.034C524.315 278.754 525.089 279.306 526.001 279.69C526.925 280.062 527.975 280.248 529.151 280.248C530.315 280.248 531.353 280.062 532.265 279.69C533.177 279.306 533.945 278.754 534.569 278.034C535.205 277.314 535.691 276.438 536.027 275.406C536.363 274.362 536.531 273.186 536.531 271.878ZM551.752 275.298V285H545.668V258.774H554.2C556.096 258.774 557.71 258.972 559.042 259.368C560.386 259.752 561.478 260.292 562.318 260.988C563.17 261.684 563.788 262.506 564.172 263.454C564.556 264.402 564.748 265.434 564.748 266.55C564.748 267.402 564.634 268.206 564.406 268.962C564.178 269.718 563.836 270.42 563.38 271.068C562.936 271.704 562.384 272.274 561.724 272.778C561.076 273.282 560.326 273.696 559.474 274.02C559.882 274.224 560.26 274.476 560.608 274.776C560.968 275.076 561.28 275.442 561.544 275.874L567.124 285H561.616C560.596 285 559.864 284.616 559.42 283.848L555.064 276.234C554.872 275.898 554.644 275.658 554.38 275.514C554.128 275.37 553.768 275.298 553.3 275.298H551.752ZM551.752 271.104H554.2C555.028 271.104 555.73 271.002 556.306 270.798C556.894 270.582 557.374 270.288 557.746 269.916C558.118 269.544 558.388 269.112 558.556 268.62C558.724 268.116 558.808 267.576 558.808 267C558.808 265.848 558.43 264.948 557.674 264.3C556.93 263.652 555.772 263.328 554.2 263.328H551.752V271.104ZM576.269 285H570.149V258.774H576.269V285ZM600.184 258.774V263.598H592.804V285H586.72V263.598H579.34V258.774H600.184ZM615.759 275.028V285H609.675V275.028L600.171 258.774H605.535C606.063 258.774 606.483 258.9 606.795 259.152C607.107 259.392 607.359 259.704 607.551 260.088L611.259 267.72C611.559 268.332 611.835 268.896 612.087 269.412C612.339 269.928 612.561 270.438 612.753 270.942C612.933 270.426 613.149 269.91 613.401 269.394C613.653 268.878 613.923 268.32 614.211 267.72L617.883 260.088C617.955 259.932 618.051 259.776 618.171 259.62C618.303 259.464 618.447 259.326 618.603 259.206C618.771 259.074 618.957 258.972 619.161 258.9C619.377 258.816 619.611 258.774 619.863 258.774H625.263L615.759 275.028Z" fill="black"/>
<path d="M38.9752 264.102C38.7952 264.39 38.6032 264.606 38.3992 264.75C38.2072 264.894 37.9552 264.966 37.6432 264.966C37.3672 264.966 37.0672 264.882 36.7432 264.714C36.4312 264.534 36.0712 264.336 35.6632 264.12C35.2672 263.904 34.8112 263.712 34.2952 263.544C33.7792 263.364 33.1912 263.274 32.5312 263.274C31.3912 263.274 30.5392 263.52 29.9752 264.012C29.4232 264.492 29.1472 265.146 29.1472 265.974C29.1472 266.502 29.3152 266.94 29.6512 267.288C29.9872 267.636 30.4252 267.936 30.9652 268.188C31.5172 268.44 32.1412 268.674 32.8372 268.89C33.5452 269.094 34.2652 269.328 34.9972 269.592C35.7292 269.844 36.4432 270.144 37.1392 270.492C37.8472 270.84 38.4712 271.284 39.0112 271.824C39.5632 272.364 40.0072 273.024 40.3432 273.804C40.6792 274.572 40.8472 275.502 40.8472 276.594C40.8472 277.806 40.6372 278.94 40.2172 279.996C39.7972 281.052 39.1852 281.976 38.3812 282.768C37.5892 283.548 36.6052 284.166 35.4292 284.622C34.2652 285.066 32.9392 285.288 31.4512 285.288C30.6352 285.288 29.8012 285.204 28.9492 285.036C28.1092 284.868 27.2932 284.634 26.5012 284.334C25.7092 284.022 24.9652 283.656 24.2692 283.236C23.5732 282.816 22.9672 282.348 22.4512 281.832L24.2512 278.988C24.3832 278.772 24.5692 278.598 24.8092 278.466C25.0492 278.334 25.3072 278.268 25.5832 278.268C25.9432 278.268 26.3032 278.382 26.6632 278.61C27.0352 278.838 27.4492 279.09 27.9052 279.366C28.3732 279.642 28.9072 279.894 29.5072 280.122C30.1072 280.35 30.8152 280.464 31.6312 280.464C32.7352 280.464 33.5932 280.224 34.2052 279.744C34.8172 279.252 35.1232 278.478 35.1232 277.422C35.1232 276.81 34.9552 276.312 34.6192 275.928C34.2832 275.544 33.8392 275.226 33.2872 274.974C32.7472 274.722 32.1292 274.5 31.4332 274.308C30.7372 274.116 30.0232 273.906 29.2912 273.678C28.5592 273.438 27.8452 273.15 27.1492 272.814C26.4532 272.466 25.8292 272.016 25.2772 271.464C24.7372 270.9 24.2992 270.204 23.9632 269.376C23.6272 268.536 23.4592 267.504 23.4592 266.28C23.4592 265.296 23.6572 264.336 24.0532 263.4C24.4492 262.464 25.0312 261.63 25.7992 260.898C26.5672 260.166 27.5092 259.584 28.6252 259.152C29.7412 258.708 31.0192 258.486 32.4592 258.486C33.2632 258.486 34.0432 258.552 34.7992 258.684C35.5672 258.804 36.2932 258.99 36.9772 259.242C37.6612 259.482 38.2972 259.776 38.8852 260.124C39.4852 260.46 40.0192 260.844 40.4872 261.276L38.9752 264.102ZM50.5309 285H44.4109V258.774H50.5309V285ZM58.6062 258.774C58.8702 258.774 59.0922 258.786 59.2722 258.81C59.4522 258.834 59.6142 258.882 59.7582 258.954C59.9022 259.014 60.0402 259.104 60.1722 259.224C60.3042 259.344 60.4542 259.506 60.6222 259.71L73.0782 275.46C73.0302 274.956 72.9942 274.47 72.9702 274.002C72.9462 273.522 72.9342 273.072 72.9342 272.652V258.774H78.2982V285H75.1302C74.6622 285 74.2662 284.928 73.9422 284.784C73.6182 284.64 73.3062 284.376 73.0062 283.992L60.6402 268.368C60.6762 268.824 60.7062 269.274 60.7302 269.718C60.7542 270.15 60.7662 270.558 60.7662 270.942V285H55.4022V258.774H58.6062ZM94.9611 280.608C95.8011 280.608 96.5451 280.536 97.1931 280.392C97.8411 280.248 98.4531 280.056 99.0291 279.816V275.838H96.4371C96.0531 275.838 95.7531 275.736 95.5371 275.532C95.3211 275.328 95.2131 275.07 95.2131 274.758V271.41H104.537V282.48C103.865 282.972 103.163 283.398 102.431 283.758C101.711 284.106 100.937 284.394 100.109 284.622C99.2931 284.85 98.4171 285.018 97.4811 285.126C96.5571 285.234 95.5611 285.288 94.4931 285.288C92.5731 285.288 90.7971 284.952 89.1651 284.28C87.5331 283.596 86.1171 282.66 84.9171 281.472C83.7291 280.272 82.7931 278.856 82.1091 277.224C81.4371 275.58 81.1011 273.798 81.1011 271.878C81.1011 269.922 81.4251 268.128 82.0731 266.496C82.7211 264.852 83.6451 263.436 84.8451 262.248C86.0571 261.06 87.5151 260.136 89.2191 259.476C90.9351 258.816 92.8491 258.486 94.9611 258.486C96.0531 258.486 97.0791 258.576 98.0391 258.756C98.9991 258.936 99.8811 259.182 100.685 259.494C101.501 259.806 102.245 260.178 102.917 260.61C103.589 261.042 104.189 261.51 104.717 262.014L102.953 264.696C102.785 264.948 102.581 265.146 102.341 265.29C102.113 265.434 101.861 265.506 101.585 265.506C101.225 265.506 100.853 265.386 100.469 265.146C99.9891 264.858 99.5331 264.612 99.1011 264.408C98.6811 264.192 98.2491 264.018 97.8051 263.886C97.3611 263.754 96.8931 263.658 96.4011 263.598C95.9091 263.538 95.3571 263.508 94.7451 263.508C93.6051 263.508 92.5791 263.712 91.6671 264.12C90.7551 264.516 89.9751 265.08 89.3271 265.812C88.6911 266.544 88.1991 267.426 87.8511 268.458C87.5031 269.478 87.3291 270.618 87.3291 271.878C87.3291 273.27 87.5211 274.506 87.9051 275.586C88.2891 276.666 88.8171 277.578 89.4891 278.322C90.1731 279.066 90.9771 279.636 91.9011 280.032C92.8371 280.416 93.8571 280.608 94.9611 280.608ZM119.15 280.194C119.966 280.194 120.692 280.062 121.328 279.798C121.976 279.522 122.522 279.132 122.966 278.628C123.41 278.124 123.746 277.512 123.974 276.792C124.214 276.06 124.334 275.232 124.334 274.308V258.774H130.418V274.308C130.418 275.916 130.154 277.392 129.626 278.736C129.11 280.08 128.366 281.238 127.394 282.21C126.422 283.182 125.24 283.938 123.848 284.478C122.456 285.018 120.89 285.288 119.15 285.288C117.398 285.288 115.826 285.018 114.434 284.478C113.042 283.938 111.86 283.182 110.888 282.21C109.916 281.238 109.172 280.08 108.656 278.736C108.14 277.392 107.882 275.916 107.882 274.308V258.774H113.966V274.29C113.966 275.214 114.08 276.042 114.308 276.774C114.548 277.494 114.89 278.112 115.334 278.628C115.778 279.132 116.318 279.522 116.954 279.798C117.602 280.062 118.334 280.194 119.15 280.194ZM140.447 280.14H150.167V285H134.363V258.774H140.447V280.14ZM177.439 285H172.723C172.195 285 171.757 284.88 171.409 284.64C171.073 284.388 170.839 284.07 170.707 283.686L169.159 279.114H159.187L157.639 283.686C157.519 284.022 157.285 284.328 156.937 284.604C156.589 284.868 156.163 285 155.659 285H150.907L161.059 258.774H167.287L177.439 285ZM160.591 274.974H167.755L165.343 267.792C165.187 267.336 165.001 266.802 164.785 266.19C164.581 265.566 164.377 264.894 164.173 264.174C163.981 264.906 163.783 265.584 163.579 266.208C163.375 266.832 163.183 267.372 163.003 267.828L160.591 274.974ZM185.658 275.298V285H179.574V258.774H188.106C190.002 258.774 191.616 258.972 192.948 259.368C194.292 259.752 195.384 260.292 196.224 260.988C197.076 261.684 197.694 262.506 198.078 263.454C198.462 264.402 198.654 265.434 198.654 266.55C198.654 267.402 198.54 268.206 198.312 268.962C198.084 269.718 197.742 270.42 197.286 271.068C196.842 271.704 196.29 272.274 195.63 272.778C194.982 273.282 194.232 273.696 193.38 274.02C193.788 274.224 194.166 274.476 194.514 274.776C194.874 275.076 195.186 275.442 195.45 275.874L201.03 285H195.522C194.502 285 193.77 284.616 193.326 283.848L188.97 276.234C188.778 275.898 188.55 275.658 188.286 275.514C188.034 275.37 187.674 275.298 187.206 275.298H185.658ZM185.658 271.104H188.106C188.934 271.104 189.636 271.002 190.212 270.798C190.8 270.582 191.28 270.288 191.652 269.916C192.024 269.544 192.294 269.112 192.462 268.62C192.63 268.116 192.714 267.576 192.714 267C192.714 265.848 192.336 264.948 191.58 264.3C190.836 263.652 189.678 263.328 188.106 263.328H185.658V271.104ZM210.175 285H204.055V258.774H210.175V285ZM234.091 258.774V263.598H226.711V285H220.627V263.598H213.247V258.774H234.091ZM249.666 275.028V285H243.582V275.028L234.077 258.774H239.442C239.97 258.774 240.39 258.9 240.702 259.152C241.014 259.392 241.266 259.704 241.458 260.088L245.166 267.72C245.466 268.332 245.742 268.896 245.994 269.412C246.246 269.928 246.468 270.438 246.66 270.942C246.84 270.426 247.056 269.91 247.308 269.394C247.56 268.878 247.83 268.32 248.118 267.72L251.79 260.088C251.862 259.932 251.958 259.776 252.078 259.62C252.21 259.464 252.354 259.326 252.51 259.206C252.678 259.074 252.864 258.972 253.068 258.9C253.284 258.816 253.518 258.774 253.77 258.774H259.17L249.666 275.028Z" fill="black"/>
<path d="M347 51L374.166 134.609H462.078L390.956 186.282L418.122 269.891L347 218.218L275.878 269.891L303.044 186.282L231.922 134.609H319.834L347 51Z" fill="url(#paint0_linear_91_7)"/>
<defs>
<linearGradient id="paint0_linear_91_7" x1="231.845" y1="134.005" x2="406" y2="226" gradientUnits="userSpaceOnUse">
<stop stop-color="#12264D"/>
<stop offset="0.375" stop-color="#840C31"/>
<stop offset="0.536458" stop-color="#C70927"/>
<stop offset="0.776042" stop-color="#FC6623"/>
<stop offset="0.973958" stop-color="#FFBD30"/>
</linearGradient>
</defs>
</svg>
