<svg width="32" height="32" viewBox="0 0 32 32" fill="none" xmlns="http://www.w3.org/2000/svg">
<path fill-rule="evenodd" clip-rule="evenodd" d="M14.124 1.98533C16.224 0.8542 23.2741 4.11854 23.1841 12.287C23.1616 14.6783 22.2541 17.7756 21.5641 19.4306C21.4516 19.7039 21.3316 19.9772 21.2041 20.2581C21.1516 20.3719 21.0991 20.4858 21.0466 20.5997C20.619 21.5638 20.784 22.1028 22.0966 21.374C22.2016 21.3133 22.3066 21.2601 22.4116 21.1994C22.8916 20.9337 23.3416 20.6604 23.7541 20.3795C24.4741 19.8937 26.6266 18.14 27.7741 16.4168C30.7066 11.9909 30.0541 7.92947 26.5141 4.46016C24.7516 2.73689 22.6141 1.45393 20.2815 0.717553C16.1265 -0.0567795 14.5215 0.770693 14.124 1.98533Z" fill="url(#paint0_linear_4948_123192)"/>
<path fill-rule="evenodd" clip-rule="evenodd" d="M11.0716 16.0982C14.8216 17.5937 19.8466 18.5199 23.3041 20.1597C23.6791 20.3419 24.0391 20.5241 24.3841 20.7214C26.3191 21.8602 27.5116 23.3253 27.2641 25.4509C27.2191 25.8609 27.1141 26.2936 26.9566 26.7491C28.0141 25.618 28.9066 24.3426 29.5891 22.9609C29.6191 22.9002 29.6491 22.8395 29.6791 22.7787C30.5566 20.5317 29.5516 18.3909 27.6691 16.3032C26.7166 15.248 25.5466 14.2079 24.2941 13.1755C21.0991 10.5564 17.3266 7.98292 15.1216 5.34108C14.4466 4.53638 13.7791 3.09399 14.1391 1.98564C14.5291 0.770998 16.1416 -0.0564744 20.2891 0.717858C17.9191 -0.0337 15.3466 -0.215896 12.7741 0.26996C12.2491 0.368649 11.7241 0.497705 11.2066 0.657126C9.40656 1.19612 7.77155 2.03878 6.34655 3.10918C4.77154 4.55156 4.19404 6.22928 4.29904 7.89182C4.51654 11.2776 7.55405 14.6331 10.7791 15.9768C10.8616 16.0147 10.9666 16.0603 11.0716 16.0982ZM7.29155 17.3205C10.7866 20.0382 14.0566 20.4785 16.7716 22.5054C19.3216 24.4109 20.3341 28.0169 18.2866 31.0459C17.8891 31.3951 17.3566 31.5545 16.6141 31.6228C16.1266 31.6532 15.6391 31.6608 15.1591 31.6456H15.1516H15.1441H15.1366H15.1291C8.57406 31.433 2.60403 27.03 0.646524 20.3191C-1.00348 14.6786 0.601523 8.84075 4.35904 4.8704C1.71903 10.4729 5.15404 15.6655 7.29155 17.3205Z" fill="url(#paint1_linear_4948_123192)"/>
<path fill-rule="evenodd" clip-rule="evenodd" d="M7.29135 17.3281C5.15384 15.6656 1.71883 10.473 4.34384 4.87805C1.02133 9.07615 1.12633 14.3826 3.70634 18.6111C5.59635 21.7236 8.49136 22.2929 9.65386 24.874C10.8989 27.6525 9.09886 30.4993 12.7289 31.3875C13.5764 31.547 14.4464 31.6457 15.3239 31.6608C18.0764 31.714 18.8714 31.2585 19.3064 28.5104C19.6739 26.195 18.6314 23.9023 16.7714 22.5131C14.0564 20.4786 10.7864 20.0383 7.29135 17.3281Z" fill="url(#paint2_linear_4948_123192)"/>
<path d="M21.564 19.4306C22.1715 19.6583 22.7565 19.8937 23.304 20.1518C23.4615 20.2277 23.6115 20.296 23.754 20.3719C24.474 19.8861 26.6265 18.1324 27.774 16.4092L27.669 16.3029C26.7165 15.2477 25.5465 14.2076 24.294 13.1752C23.934 12.8791 23.559 12.5831 23.1915 12.287C23.154 14.6783 22.254 17.7756 21.564 19.4306Z" fill="url(#paint3_linear_4948_123192)"/>
<path d="M4.28409 7.89182C4.5016 11.2776 7.53911 14.6331 10.7641 15.9768L11.0716 16.0982C12.6241 16.7131 14.3866 17.2369 16.1716 17.7532C9.46661 14.1092 10.4491 4.5136 14.1316 1.98564C14.5216 0.770998 16.1341 -0.0564744 20.2817 0.717858C17.9116 -0.0337 15.3391 -0.215896 12.7666 0.26996C12.2416 0.368649 11.7166 0.497705 11.1991 0.657126C9.39911 1.19612 7.76411 2.03878 6.3391 3.10918C4.7491 4.55156 4.17159 6.22928 4.28409 7.89182Z" fill="url(#paint4_linear_4948_123192)"/>
<defs>
<linearGradient id="paint0_linear_4948_123192" x1="13.3223" y1="2.52152" x2="27.7232" y2="16.7489" gradientUnits="userSpaceOnUse">
<stop offset="0.2" stop-color="#652400"/>
<stop offset="1" stop-color="#D10A11"/>
</linearGradient>
<linearGradient id="paint1_linear_4948_123192" x1="19.442" y1="30.6859" x2="7.71122" y2="2.00106" gradientUnits="userSpaceOnUse">
<stop offset="0.05" stop-color="#E74E0F"/>
<stop offset="0.95" stop-color="#FAB900"/>
</linearGradient>
<linearGradient id="paint2_linear_4948_123192" x1="5.26567" y1="22.256" x2="13.2159" y2="16.7562" gradientUnits="userSpaceOnUse">
<stop stop-color="#D10A11"/>
<stop offset="0.85" stop-color="#EE7D00"/>
</linearGradient>
<linearGradient id="paint3_linear_4948_123192" x1="21.6745" y1="16.272" x2="27.7698" y2="16.4823" gradientUnits="userSpaceOnUse">
<stop offset="0.25" stop-color="#D10A11" stop-opacity="0"/>
<stop offset="1" stop-color="#D10A11" stop-opacity="0.5"/>
</linearGradient>
<linearGradient id="paint4_linear_4948_123192" x1="20.0449" y1="0.511673" x2="7.70719" y2="14.049" gradientUnits="userSpaceOnUse">
<stop offset="0.08" stop-color="#D10A11" stop-opacity="0.5"/>
<stop offset="0.8" stop-color="#D10A11" stop-opacity="0"/>
</linearGradient>
</defs>
</svg>
