<svg width="153" height="23" viewBox="0 0 153 23" fill="none" xmlns="http://www.w3.org/2000/svg">
<path d="M9.68906 7.81C9.68906 6.25 9.49906 5.12 9.11906 4.42C8.75906 3.7 8.08906 3.34 7.10906 3.34C6.56906 3.34 6.11906 3.49 5.75906 3.79C5.41906 4.07 5.14906 4.54 4.94906 5.2C4.74906 5.84 4.60906 6.69 4.52906 7.75C4.44906 8.79 4.40906 10.07 4.40906 11.59C4.40906 13.21 4.45906 14.52 4.55906 15.52C4.67906 16.52 4.84906 17.3 5.06906 17.86C5.30906 18.4 5.59906 18.77 5.93906 18.97C6.29906 19.15 6.70906 19.24 7.16906 19.24C7.54906 19.24 7.89906 19.18 8.21906 19.06C8.55906 18.92 8.84906 18.66 9.08906 18.28C9.32906 17.88 9.51906 17.33 9.65906 16.63C9.79906 15.91 9.86906 14.97 9.86906 13.81H14.1891C14.1891 14.97 14.0991 16.07 13.9191 17.11C13.7391 18.15 13.3991 19.06 12.8991 19.84C12.4191 20.62 11.7291 21.23 10.8291 21.67C9.94906 22.11 8.79906 22.33 7.37906 22.33C5.75906 22.33 4.46906 22.07 3.50906 21.55C2.54906 21.03 1.80906 20.28 1.28906 19.3C0.789063 18.32 0.459063 17.15 0.299063 15.79C0.159063 14.43 0.0890625 12.93 0.0890625 11.29C0.0890625 9.67 0.159063 8.18 0.299063 6.82C0.459063 5.44 0.789063 4.26 1.28906 3.28C1.80906 2.3 2.54906 1.54 3.50906 0.999999C4.46906 0.439999 5.75906 0.159999 7.37906 0.159999C8.91906 0.159999 10.1291 0.409999 11.0091 0.91C11.9091 1.41 12.5791 2.05 13.0191 2.83C13.4591 3.59 13.7291 4.42 13.8291 5.32C13.9491 6.2 14.0091 7.03 14.0091 7.81H9.68906ZM16.6523 22V0.579999H20.9723V18.46H28.6223V22H16.6523ZM30.7491 22V0.579999H35.0691V22H30.7491ZM50.2434 0.579999V4.12H42.5934V9.16H49.7934V12.7H42.5934V18.46H50.5434V22H38.2734V0.579999H50.2434ZM57.6968 0.579999L62.9168 15.25H62.9768V0.579999H66.9368V22H62.0168L56.7368 7H56.6768V22H52.7168V0.579999H57.6968ZM82.4834 0.579999V4.12H77.8034V22H73.4834V4.12H68.8034V0.579999H82.4834ZM91.5645 22V0.579999H95.8845V18.46H103.534V22H91.5645ZM109.321 11.29C109.321 12.73 109.351 13.96 109.411 14.98C109.491 15.98 109.631 16.8 109.831 17.44C110.051 18.06 110.351 18.52 110.731 18.82C111.131 19.1 111.651 19.24 112.291 19.24C112.931 19.24 113.441 19.1 113.821 18.82C114.221 18.52 114.521 18.06 114.721 17.44C114.941 16.8 115.081 15.98 115.141 14.98C115.221 13.96 115.261 12.73 115.261 11.29C115.261 9.85 115.221 8.63 115.141 7.63C115.081 6.63 114.941 5.81 114.721 5.17C114.521 4.53 114.221 4.07 113.821 3.79C113.441 3.49 112.931 3.34 112.291 3.34C111.651 3.34 111.131 3.49 110.731 3.79C110.351 4.07 110.051 4.53 109.831 5.17C109.631 5.81 109.491 6.63 109.411 7.63C109.351 8.63 109.321 9.85 109.321 11.29ZM105.001 11.29C105.001 9.67 105.071 8.18 105.211 6.82C105.371 5.44 105.701 4.26 106.201 3.28C106.721 2.3 107.461 1.54 108.421 0.999999C109.381 0.439999 110.671 0.159999 112.291 0.159999C113.911 0.159999 115.201 0.439999 116.161 0.999999C117.121 1.54 117.851 2.3 118.351 3.28C118.871 4.26 119.201 5.44 119.341 6.82C119.501 8.18 119.581 9.67 119.581 11.29C119.581 12.93 119.501 14.43 119.341 15.79C119.201 17.15 118.871 18.32 118.351 19.3C117.851 20.28 117.121 21.03 116.161 21.55C115.201 22.07 113.911 22.33 112.291 22.33C110.671 22.33 109.381 22.07 108.421 21.55C107.461 21.03 106.721 20.28 106.201 19.3C105.701 18.32 105.371 17.15 105.211 15.79C105.071 14.43 105.001 12.93 105.001 11.29ZM131.631 6.94C131.631 6.54 131.581 6.13 131.481 5.71C131.401 5.29 131.261 4.91 131.061 4.57C130.861 4.21 130.601 3.92 130.281 3.7C129.981 3.46 129.611 3.34 129.171 3.34C128.131 3.34 127.381 3.92 126.921 5.08C126.461 6.24 126.231 8.16 126.231 10.84C126.231 12.12 126.271 13.28 126.351 14.32C126.431 15.36 126.571 16.25 126.771 16.99C126.991 17.71 127.291 18.27 127.671 18.67C128.071 19.05 128.581 19.24 129.201 19.24C129.461 19.24 129.741 19.17 130.041 19.03C130.361 18.89 130.651 18.68 130.911 18.4C131.191 18.12 131.421 17.77 131.601 17.35C131.781 16.91 131.871 16.4 131.871 15.82V13.63H129.021V10.45H136.011V22H132.831V20.02H132.771C132.251 20.86 131.621 21.46 130.881 21.82C130.161 22.16 129.291 22.33 128.271 22.33C126.951 22.33 125.871 22.1 125.031 21.64C124.211 21.18 123.561 20.47 123.081 19.51C122.621 18.55 122.311 17.37 122.151 15.97C121.991 14.55 121.911 12.91 121.911 11.05C121.911 9.25 122.021 7.67 122.241 6.31C122.481 4.95 122.881 3.82 123.441 2.92C124.001 2 124.741 1.31 125.661 0.849999C126.581 0.389999 127.731 0.159999 129.111 0.159999C131.471 0.159999 133.171 0.749999 134.211 1.93C135.251 3.09 135.771 4.76 135.771 6.94H131.631ZM142.661 11.29C142.661 12.73 142.691 13.96 142.751 14.98C142.831 15.98 142.971 16.8 143.171 17.44C143.391 18.06 143.691 18.52 144.071 18.82C144.471 19.1 144.991 19.24 145.631 19.24C146.271 19.24 146.781 19.1 147.161 18.82C147.561 18.52 147.861 18.06 148.061 17.44C148.281 16.8 148.421 15.98 148.481 14.98C148.561 13.96 148.601 12.73 148.601 11.29C148.601 9.85 148.561 8.63 148.481 7.63C148.421 6.63 148.281 5.81 148.061 5.17C147.861 4.53 147.561 4.07 147.161 3.79C146.781 3.49 146.271 3.34 145.631 3.34C144.991 3.34 144.471 3.49 144.071 3.79C143.691 4.07 143.391 4.53 143.171 5.17C142.971 5.81 142.831 6.63 142.751 7.63C142.691 8.63 142.661 9.85 142.661 11.29ZM138.341 11.29C138.341 9.67 138.411 8.18 138.551 6.82C138.711 5.44 139.041 4.26 139.541 3.28C140.061 2.3 140.801 1.54 141.761 0.999999C142.721 0.439999 144.011 0.159999 145.631 0.159999C147.251 0.159999 148.541 0.439999 149.501 0.999999C150.461 1.54 151.191 2.3 151.691 3.28C152.211 4.26 152.541 5.44 152.681 6.82C152.841 8.18 152.921 9.67 152.921 11.29C152.921 12.93 152.841 14.43 152.681 15.79C152.541 17.15 152.211 18.32 151.691 19.3C151.191 20.28 150.461 21.03 149.501 21.55C148.541 22.07 147.251 22.33 145.631 22.33C144.011 22.33 142.721 22.07 141.761 21.55C140.801 21.03 140.061 20.28 139.541 19.3C139.041 18.32 138.711 17.15 138.551 15.79C138.411 14.43 138.341 12.93 138.341 11.29Z" fill="black"/>
</svg>
