<?xml version="1.0" encoding="UTF-8"?>
<svg id="Layer_1" data-name="Layer 1" xmlns="http://www.w3.org/2000/svg" viewBox="0 0 847.36 135.46">
  <defs>
    <style>
      .cls-1 {
        fill-rule: evenodd;
      }

      .cls-1, .cls-2 {
        fill: #fff;
        stroke-width: 0px;
      }
    </style>
  </defs>
  <path class="cls-2" d="m833.62,106.19l.34,4.39h13.77c-.09-1.41-.18-3.05-.26-4.95-.07-1.87-.13-3.87-.17-6-.06-1.98-.08-3.96-.08-5.96V24.91h-15.39v24.7c-5.79-5.85-20.26-5.65-26.98-1.65-4.34,2.57-7.59,6.57-9.86,11.37-2.29,4.81-3.42,10.69-3.44,17.67.04,8.66,1.48,15.11,5.52,22.79,6.52,12.4,26.34,15.8,36.55,6.4m-26.67-29.97c0-3.76.36-6.9,1.07-9.41,1.07-3.95,3.45-7.9,7.49-9.29,7.15-2.47,14.24.85,16.32,3.78v33.2c-3.72,5.63-14.47,5.18-19.5.74-1.92-1.52-3.31-3.87-4.14-7.01-.85-3.15-1.26-7.14-1.24-12.02m-466.4-29.65h-7.14v-5.98c-.01-3.69-1.04-10.87-3.11-13.27l-12.29,12.05v7.2s-14.55,0-14.55,0c0-12.22,1.98-13.67,9.04-14.52l4.64-11.99c-20.12-.72-29.09,7.25-29.09,26.51h-11.84l4.69,13.21h7.15v50.79h15.39v-50.79h14.56v30.65c.03,4.43.83,8.21,2.46,11.36,1.64,3.16,3.98,5.58,7.01,7.26,3.04,1.67,6.67,2.52,10.92,2.54,4.75,0,8.85-.79,12.62-2.6l-4.22-11.89c-1.75.91-3.55,1.28-5.58,1.28-1.88.02-3.38-.18-4.53-.58-1.16-.41-1.98-1.11-2.52-2.14-.51-1.02-.77-2.48-.77-4.33v-31.55h11.84l-4.69-13.21Zm137.2,41.38c0,.6,0,1.19-.05,1.79-.05.6-.15,1.19-.35,1.79-.53,1.56-1.39,3.02-2.56,4.36-1.17,1.33-2.62,2.4-4.36,3.22-1.72.84-3.7,1.26-5.91,1.29-1.74,0-3.3-.33-4.7-1-1.39-.66-2.49-1.67-3.3-3.04-.81-1.37-1.24-3.11-1.26-5.22.02-2.43.66-4.46,1.9-6.04,1.23-1.57,2.91-2.82,5.03-3.7,2.11-.88,4.52-1.5,7.18-1.85,2.69-.33,5.47-.49,8.39-.44v8.86Zm15.87-16.01c.02-3.57-.4-6.99-1.26-10.23-.85-3.24-2.29-6.16-4.3-8.72-2.01-2.55-4.74-4.56-8.18-6.04-3.44-1.48-7.72-2.25-12.86-2.27-5.02.03-11.22.48-16.18,1.89l-5.02,14.15c4.94-2.99,12.73-4.53,18.42-4.53,2.82.02,5.11.42,6.86,1.17,1.74.75,3.06,1.69,3.97,2.86.9,1.17,1.5,2.38,1.83,3.66.32,1.28.47,2.48.44,3.55v1.06c-7.96-.05-14.8.83-20.5,2.67-5.69,1.81-10.06,4.54-13.1,8.16-3.07,3.61-4.61,8.14-4.64,13.51,0,2.47.47,4.85,1.35,7.13.88,2.29,2.18,4.32,3.92,6.12,1.72,1.83,3.84,3.26,6.35,4.3,2.49,1.06,5.39,1.61,8.62,1.64,2.83-.03,5.44-.37,7.85-1.1,2.4-.76,4.55-1.74,6.44-3.04,1.9-1.28,3.49-2.76,4.77-4.45h.4l1.19,7.14h14.69c-.39-2.03-.66-4.36-.81-7.05-.18-2.67-.24-5.5-.24-8.43v-23.15Zm-65.45-25.37h16.29l-22.7,64h-15.4l-10.52-36.81-10.65,36.81h-15.38l-14.32-40.39-8.37-23.61h16.28l13.6,46.17,12.19-46.17h13.21l12.18,46.17,13.6-46.17Zm249.61-21.67l-22.66,35.83-22.65-35.83h-17.06v85.67h15.39v-60.17l24.32,35.79,24.33-35.79v60.17h15.4V24.91h-17.06Zm-176.35,85.67h16.13v-33.19c0-.85.03-1.71.09-2.54.07-.81.18-1.6.31-2.32.48-2.47,1.38-4.61,2.69-6.42,1.31-1.82,2.95-3.24,4.94-4.24,1.27-.64,2.64-1.08,4.13-1.31.32-.86.67-1.7,1.05-2.53.97-2.13,2.12-4.1,3.44-5.89,1.77-2.4,3.34-3.87,3.03-6.49-.64-.13-1.25-.24-1.82-.31-.56-.07-1.22-.09-1.98-.09-2.34,0-4.66.51-6.95,1.53-2.27,1-4.35,2.52-6.21,4.5-1.87,2.02-3.36,4.51-4.43,7.49h-.39l-.66-12.19h-13.9c.2,2.77.33,5.95.42,9.28.07,3.32.11,7.15.11,11.43v43.29Zm64.04-12.33c3.03-.03,5.88-.26,8.51-.74,2.63-.47,5.04-1.1,7.26-1.85,2.23-.76,4.24-1.58,6.03-2.47v12.58c-1.96,1.1-4.17,2.08-6.59,2.96-2.43.87-5.1,1.56-8.03,2.08-2.9.52-6.07.78-9.49.79-2.57.02-5.21-.24-7.97-.76-2.74-.54-5.41-1.47-7.99-2.83-2.56-1.36-4.89-3.26-6.97-5.7-2.08-2.47-3.72-5.6-4.94-9.43-1.22-3.82-1.87-8.49-1.88-13.96-.02-4.87.49-9.37,1.54-13.51,1.02-4.13,2.67-7.76,4.91-10.86,2.26-3.11,5.22-5.5,8.85-7.24,3.66-1.73,8.08-2.61,13.29-2.63,4,.02,7.55.58,10.67,1.71,3.1,1.12,5.77,2.68,8.04,4.66,2.27,1.98,4.12,4.32,5.61,6.96,1.44,2.64,2.54,5.49,3.24,8.56.7,3.07,1.04,6.23,1.04,9.49,0,1.43,0,2.79-.04,4.11-.02,1.34-.09,2.64-.22,3.93h-41.17c.23,3.09.87,5.58,1.88,7.46,1,1.88,2.27,3.3,3.8,4.28s3.22,1.62,5.04,1.94c1.82.32,3.68.48,5.56.45m-3.47-40.85c-2.52-.02-4.68.5-6.5,1.58-1.79,1.06-3.23,2.77-4.28,5.1-1.07,2.35-1.75,5.44-2.05,9.27h25.77c-.19-2.05-.59-4.04-1.2-5.94-.6-1.9-1.43-3.59-2.5-5.1-1.04-1.49-2.35-2.68-3.87-3.57-1.54-.89-3.34-1.32-5.39-1.34m-314.31-12.71c6.52.03,12.02,1.3,16.52,3.86,4.49,2.59,7.91,6.34,10.24,11.32,2.33,4.99,3.48,11.06,3.51,18.29-.03,7.22-1.18,13.29-3.51,18.26-2.33,4.98-5.75,8.75-10.24,11.34-4.51,2.55-10,3.84-16.52,3.86-6.52-.02-12.01-1.3-16.51-3.86-4.51-2.59-7.9-6.36-10.26-11.34-2.33-4.97-3.48-11.03-3.5-18.26.02-7.23,1.17-13.31,3.5-18.29,2.36-4.98,5.75-8.73,10.26-11.32,4.5-2.55,9.99-3.83,16.51-3.86m0,54.03c2.29.02,4.33-.24,6.17-.81,1.82-.55,3.39-1.56,4.7-3.03,1.29-1.48,2.28-3.56,2.97-6.27.7-2.71,1.04-6.17,1.04-10.45s-.34-7.78-1.04-10.47c-.69-2.71-1.67-4.79-2.97-6.27-1.31-1.48-2.88-2.5-4.7-3.03-1.84-.56-3.89-.83-6.17-.8-2.29-.03-4.33.24-6.15.8-1.83.54-3.4,1.56-4.7,3.03-1.29,1.48-2.3,3.56-2.98,6.27-.68,2.69-1.05,6.19-1.05,10.47s.37,7.74,1.05,10.45c.68,2.71,1.69,4.79,2.98,6.27,1.3,1.48,2.86,2.49,4.7,3.03,1.82.56,3.87.83,6.15.81m-78.76-50.21c.02-1.92.54-3.52,1.52-4.83.96-1.31,2.29-2.35,3.91-3.12,1.65-.79,3.46-1.35,5.44-1.69,1.99-.34,4-.51,6.06-.49,2.94.03,5.71.32,8.25.92s4.89,1.39,7.05,2.39c2.15.99,4.1,2.05,5.85,3.23v-15.01c-3.33-1.75-6.92-3.19-10.74-4.26-3.85-1.06-7.91-1.62-12.21-1.64-4.04,0-7.88.47-11.54,1.43-3.64.96-6.88,2.46-9.73,4.47-2.84,2.01-5.08,4.6-6.73,7.74-1.64,3.15-2.48,6.88-2.52,11.24.02,3.72.66,6.86,1.86,9.42,1.22,2.59,2.86,4.75,4.94,6.46,2.07,1.73,4.37,3.17,6.96,4.3,2.57,1.13,5.24,2.11,7.98,2.95,2.76.83,5.41,1.64,7.99,2.46,2.56.79,4.89,1.71,6.94,2.76,2.08,1.03,3.72,2.33,4.94,3.89,1.22,1.56,1.84,3.5,1.87,5.85-.03,1.99-.54,3.61-1.52,4.89-.99,1.28-2.33,2.31-4.02,3.03-1.67.73-3.57,1.22-5.67,1.52-2.1.3-4.26.45-6.5.43-3.51-.02-6.73-.38-9.73-1.13-2.98-.73-5.69-1.71-8.16-2.95-2.48-1.24-4.72-2.61-6.73-4.12v15.64c2.31,1.43,4.87,2.67,7.69,3.78,2.82,1.09,5.92,1.94,9.33,2.57,3.42.62,7.13.94,11.2.96,3.99-.02,7.78-.58,11.33-1.69,3.52-1.11,6.67-2.69,9.38-4.76,2.71-2.08,4.85-4.55,6.41-7.47,1.56-2.88,2.35-6.11,2.37-9.68-.02-4.33-.64-8.03-1.86-11.07-1.22-3.03-2.86-5.58-4.94-7.61-2.05-2.05-4.38-3.72-6.96-5.02-2.57-1.31-5.23-2.4-7.98-3.27-2.73-.86-5.41-1.64-7.97-2.35-2.59-.71-4.92-1.48-6.97-2.31-2.07-.83-3.72-1.87-4.93-3.1-1.22-1.26-1.85-2.84-1.87-4.77m542.61-28.45c-1.95.03-3.65.45-5.1,1.25-1.44.82-2.59,1.95-3.4,3.36-.82,1.44-1.22,3.04-1.24,4.85.02,1.72.42,3.28,1.19,4.7.8,1.39,1.91,2.52,3.34,3.34,1.44.84,3.13,1.27,5.06,1.29,2.02-.03,3.79-.45,5.28-1.29,1.46-.83,2.59-1.96,3.38-3.34.8-1.42,1.23-2.98,1.23-4.7-.05-1.81-.47-3.41-1.27-4.85-.79-1.41-1.9-2.54-3.34-3.36-1.45-.8-3.17-1.22-5.14-1.25m7.8,90.52v-60.77c-8.79,3-15.6,8.03-15.6,15.74v45.03h15.6Zm8.9,0h15.6v-38c0-.95.06-1.87.2-2.78.12-.91.33-1.7.59-2.38.58-1.66,1.46-3.22,2.63-4.65,1.17-1.44,2.58-2.61,4.28-3.49,1.7-.91,3.65-1.37,5.81-1.39,2.96.02,5.33.75,7.13,2.17,1.83,1.41,3.13,3.33,3.97,5.77.82,2.45,1.23,5.23,1.22,8.34v36.41h15.6v-38.26c-.03-5.08-.7-9.4-1.99-12.93-1.31-3.54-2.36-6.38-4.56-8.56-2.18-2.16-4.63-3.73-7.34-4.72-2.69-.99-5.48-1.48-8.31-1.46-2.67.03-5.13.35-7.36,1.04-2.21.66-4.17,1.54-5.91,2.63-1.72,1.1-3.2,2.29-4.43,3.59-1.23,1.31-2.23,2.58-2.96,3.86h-.4l-.79-9.66c-3.7,0-8.13.49-13.4,1.6.11,2.3.21,4.74.3,7.28.09,3.19.16,6.61.16,10.31v45.28Z"/>
  <path class="cls-1" d="m91.89,86.69c-.05.09-.09.17-.13.26-.2.37-.41.77-.58,1.17-1.82,4.14-1.1,6.4,4.57,3.31.45-.22.89-.44,1.33-.72,1.27-.7,2.47-1.4,3.6-2.1-3.94-1.55-8.74-2.04-8.78-1.92"/>
  <path class="cls-1" d="m83.5,113.41c-.09-.45-.17-.9-.28-1.35-.28-1.18-.64-2.32-1.07-3.44-.11-.27-.18-.55-.29-.81-.57-1.35-1.27-2.64-2.06-3.88-.21-.34-.46-.65-.68-.98-.66-.95-1.36-1.84-2.13-2.7-.29-.32-.57-.65-.88-.97-1.06-1.08-2.18-2.11-3.42-3.01-11.75-8.65-25.88-10.54-41-22.15-2.42-1.85-5.21-4.76-7.83-8.43-7.39-10.4-13.31-27.1-4.91-44.78,0,0,0,0,0,.01,0,0,0-.01,0-.01C2.71,37.87-4.23,62.81,2.91,86.94c7.44,25.12,28.2,42.68,52.28,47.26.01,0,.02,0,.03,0,.23.04.46.06.69.1,1.54.28,3.1.52,4.67.68.54.06,1.09.07,1.64.12,1.12.09,2.23.2,3.36.24h.13c.12,0,.26,0,.39,0,.12,0,.23.02.35.03,1.85.03,3.44-.01,4.91-.11.22-.01.43,0,.65-.01.54-.05,1.02-.12,1.5-.2.16-.02.35-.04.51-.07.89-.15,1.69-.36,2.42-.62.18-.07.35-.15.53-.23.55-.23,1.06-.51,1.52-.82.16-.11.34-.22.5-.34.08-.07.18-.11.26-.18.05-.07.07-.13.11-.2,2.05-1.85,3.25-4.87,4.1-9.63.03-.14.05-.27.08-.41.04-.24.09-.41.13-.66.22-1.33.3-2.65.3-3.97,0-.33-.05-.65-.06-.98-.05-1.19-.18-2.36-.39-3.52"/>
  <path class="cls-1" d="m119.81,69.75c-4.1-4.5-9.16-8.93-14.62-13.35-13.81-11.19-30.13-22.19-39.68-33.48-2.92-3.45-5.81-9.59-4.26-14.35,1.4-4.28,5.46-9.69,24.15-5.56-15.96-1.28-16.82,4.87-16.64,4.91,11.03,1.92,27.66,13.6,31.06,35.77.08.48,11.26,7.11,23.11,22.24,9.56-17.22,6.04-33.1-8.1-46.78-7.66-7.34-16.93-12.85-26.96-15.99,0,0-3.57-.95-3.74-.99-9.2-2.31-18.99-2.73-28.78-.9-2.27.43-4.53.98-6.78,1.64-7.8,2.31-14.87,5.9-21.04,10.47-6.82,6.19-9.32,13.33-8.86,20.45.93,14.48,14.09,28.81,28.04,34.53.43.18.87.36,1.32.53,16.21,6.38,37.95,10.34,52.91,17.35,1.64.77,3.2,1.57,4.66,2.42,8.37,4.85,13.54,11.13,12.45,20.2-.2,1.75-.64,3.59-1.33,5.54,4.59-4.82,8.43-10.29,11.41-16.2.13-.26.26-.52.39-.79,3.81-9.6-.56-18.74-8.69-27.66"/>
</svg>